<svg xmlns="http://www.w3.org/2000/svg" width="16.105" height="16.933" viewBox="0 0 16.105 16.933">
  <g id="Group_7380" data-name="Group 7380" transform="translate(-9.2 -4.999)">
    <path id="Path_9953" data-name="Path 9953" d="M54.166,17.116h1.521a.454.454,0,0,0,.453-.454l0-3.053a.453.453,0,0,0-.454-.453h-1.52a.453.453,0,0,0-.453.453l0,3.054A.454.454,0,0,0,54.166,17.116Z" transform="translate(-35.76 -6.622)" fill="#07448f"/>
    <path id="Path_9954" data-name="Path 9954" d="M23.3,8.248a.959.959,0,0,0-.259-.721L20.906,5.4A1.623,1.623,0,0,0,19.877,5L8.54,5.007A1.342,1.342,0,0,0,7.2,6.349l.01,14.243a1.341,1.341,0,0,0,1.342,1.34l13.412-.009A1.342,1.342,0,0,0,23.3,20.581S23.3,8.429,23.3,8.248ZM19.207,5.83l0,4.585a.853.853,0,0,1-.808.781l-5.828,0a.818.818,0,0,1-.772-.78l0-4.585Zm1.841,14.728H9.457V14.153a.856.856,0,0,1,.837-.874H20.21a.856.856,0,0,1,.837.874Z" transform="translate(2)" fill="#07448f"/>
  </g>
</svg>
