<svg xmlns="http://www.w3.org/2000/svg" width="42.421" height="50.705" viewBox="0 0 42.421 50.705">
  <g id="noun_Files_992652" transform="translate(-9.5 -4.5)">
    <path id="Path_8957" data-name="Path 8957" d="M22.426,54.7H50.04a1.38,1.38,0,0,0,1.381-1.381V25.71a1.407,1.407,0,0,0-.406-.978L31.687,5.4A1.381,1.381,0,0,0,30.71,5H11.381A1.38,1.38,0,0,0,10,6.381V45.04a1.38,1.38,0,0,0,1.381,1.381h4.142v4.142A1.38,1.38,0,0,0,16.9,51.943h4.142v1.381A1.38,1.38,0,0,0,22.426,54.7ZM18.284,13.284H35.661l2.761,2.761h-16a1.38,1.38,0,0,0-1.381,1.381V49.182H18.284ZM12.761,7.761H30.138L32.9,10.523h-16A1.38,1.38,0,0,0,15.523,11.9V43.659H12.761ZM44.517,51.943H23.807V18.807H40.375v6.9a1.38,1.38,0,0,0,1.381,1.381h6.9V51.943ZM46.706,24.33h-3.57V20.76Z" fill="#3182de" stroke="#f6fafc" stroke-width="1"/>
    <path id="Path_8958" data-name="Path 8958" d="M57.949,65H41.381a1.381,1.381,0,0,0,0,2.761H57.949a1.381,1.381,0,1,0,0-2.761Z" transform="translate(-13.432 -26.863)" fill="#3182de" stroke="#f6fafc" stroke-width="1"/>
    <path id="Path_8959" data-name="Path 8959" d="M57.949,55H41.381a1.381,1.381,0,1,0,0,2.761H57.949a1.381,1.381,0,1,0,0-2.761Z" transform="translate(-13.432 -22.386)" fill="#3182de" stroke="#f6fafc" stroke-width="1"/>
    <path id="Path_8960" data-name="Path 8960" d="M57.949,75H41.381a1.381,1.381,0,0,0,0,2.761H57.949a1.381,1.381,0,1,0,0-2.761Z" transform="translate(-13.432 -31.341)" fill="#3182de" stroke="#f6fafc" stroke-width="1"/>
  </g>
</svg>
