<svg xmlns="http://www.w3.org/2000/svg" width="13.602" height="18.643" viewBox="0 0 13.602 18.643">
  <g id="Group_7254" data-name="Group 7254" transform="translate(-1008.5 -580.857)">
    <path id="Path_9931" data-name="Path 9931" d="M30.712,35h-2.52v1.26h2.52a.631.631,0,0,1,.63.63v8.821a.631.631,0,0,1-.63.63H21.89a.631.631,0,0,1-.63-.63V36.89a.631.631,0,0,1,.63-.63h2.52V35H21.89A1.893,1.893,0,0,0,20,36.89v8.821a1.893,1.893,0,0,0,1.89,1.89h8.821a1.893,1.893,0,0,0,1.89-1.89V36.89A1.893,1.893,0,0,0,30.712,35Z" transform="translate(989 551.398)" fill="#00448f" stroke="rgba(0,0,0,0)" stroke-miterlimit="10" stroke-width="1"/>
    <path id="Path_9932" data-name="Path 9932" d="M33.356,20.415l3,3a.63.63,0,0,0,.891,0l3-3a.211.211,0,0,0,0-.3l-.594-.594a.211.211,0,0,0-.3,0l-1.926,1.926V11.21a.211.211,0,0,0-.21-.21h-.84a.211.211,0,0,0-.21.21V21.451l-1.926-1.926a.211.211,0,0,0-.3,0l-.594.594A.211.211,0,0,0,33.356,20.415Z" transform="translate(978.498 570.357)" fill="#00448f" stroke="rgba(0,0,0,0)" stroke-miterlimit="10" stroke-width="1"/>
  </g>
</svg>
