<svg xmlns="http://www.w3.org/2000/svg" width="18.995" height="15.165" viewBox="0 0 18.995 15.165">
  <g id="Group_6765" data-name="Group 6765" transform="translate(0.547 0.515)">
    <g id="Group_6764" data-name="Group 6764">
      <path id="Path_9917" data-name="Path 9917" d="M20.052,17.336l-8.3-4.8a.612.612,0,0,0-.621,0L2.8,17.336a.649.649,0,0,0-.245.866.616.616,0,0,0,.847.226l1.506-.866v8.417a.621.621,0,0,0,1.243,0V16.828L11.428,13.8l5.253,3.031V25.96a.621.621,0,0,0,1.243,0v-8.4l1.506.866a.619.619,0,0,0,.32.075.622.622,0,0,0,.3-1.167Z" transform="translate(-2.48 -12.45)" fill="#00448f" stroke="rgba(0,0,0,0)" stroke-miterlimit="10" stroke-width="1"/>
      <path id="Path_9918" data-name="Path 9918" d="M37.173,52.354a.38.38,0,0,1-.056-.207V50.753h.056a.377.377,0,0,0,0-.753H34.537a.377.377,0,1,0,0,.753h.056v1.375a.38.38,0,0,1-.056.207l-1.789,2.881a1.174,1.174,0,0,0-.038,1.167,1.118,1.118,0,0,0,1,.584h4.274a1.136,1.136,0,0,0,.96-1.751Zm-1.657,1.6a2.648,2.648,0,0,1-1.186.151l.847-1.356a1.168,1.168,0,0,0,.169-.6V50.753h1.017v1.375a1.12,1.12,0,0,0,.169.6l.734,1.186A2.669,2.669,0,0,0,35.516,53.954Z" transform="translate(-26.907 -42.93)" fill="#00448f" stroke="rgba(0,0,0,0)" stroke-miterlimit="10" stroke-width="1"/>
      <path id="Path_9919" data-name="Path 9919" d="M48.753,37.486v-.81a.377.377,0,1,0-.753,0v.81a.377.377,0,0,0,.753,0Z" transform="translate(-39.429 -31.809)" fill="#00448f" stroke="rgba(0,0,0,0)" stroke-miterlimit="10" stroke-width="1"/>
      <path id="Path_9920" data-name="Path 9920" d="M55.14,41.505l.565-.565a.373.373,0,1,0-.527-.527l-.565.565a.364.364,0,0,0,0,.527.364.364,0,0,0,.527,0Z" transform="translate(-44.705 -35.056)" fill="#00448f" stroke="rgba(0,0,0,0)" stroke-miterlimit="10" stroke-width="1"/>
      <path id="Path_9921" data-name="Path 9921" d="M39.441,41.618a.372.372,0,0,0,.264-.113.364.364,0,0,0,0-.527l-.565-.565a.373.373,0,1,0-.527.527l.565.565A.372.372,0,0,0,39.441,41.618Z" transform="translate(-31.718 -35.056)" fill="#00448f" stroke="rgba(0,0,0,0)" stroke-miterlimit="10" stroke-width="1"/>
    </g>
  </g>
</svg>
