<svg xmlns="http://www.w3.org/2000/svg" width="17.076" height="16.357" viewBox="0 0 17.076 16.357">
  <g id="Group_6763" data-name="Group 6763" transform="translate(0.5 0.5)">
    <path id="Path_9912" data-name="Path 9912" d="M25.451,21.118A.115.115,0,0,0,25.333,21H18.918a.115.115,0,0,0-.118.118v1.111a.115.115,0,0,0,.118.118h6.416a.115.115,0,0,0,.118-.118Z" transform="translate(-16.055 -18.205)" fill="#00448f" stroke="rgba(0,0,0,0)" stroke-miterlimit="10" stroke-width="1"/>
    <path id="Path_9913" data-name="Path 9913" d="M25.333,39H18.918a.115.115,0,0,0-.118.118v1.111a.115.115,0,0,0,.118.118h6.416a.115.115,0,0,0,.118-.118V39.118A.115.115,0,0,0,25.333,39Z" transform="translate(-16.055 -33.174)" fill="#00448f" stroke="rgba(0,0,0,0)" stroke-miterlimit="10" stroke-width="1"/>
    <path id="Path_9914" data-name="Path 9914" d="M18.918,56.917a.115.115,0,0,0-.118.118v1.111a.115.115,0,0,0,.118.118h5.287a1.817,1.817,0,0,1,.455-.775l.589-.589H18.918Z" transform="translate(-16.055 -48.06)" fill="#00448f" stroke="rgba(0,0,0,0)" stroke-miterlimit="10" stroke-width="1"/>
    <path id="Path_9915" data-name="Path 9915" d="M10.515,16.254H6.272a.914.914,0,0,0-.606.236L3.628,18.342V5.528H13.58v5.86l1.128-1.128V5.292a.9.9,0,0,0-.892-.892H3.392a.9.9,0,0,0-.892.892V18.864a.884.884,0,0,0,.539.808.882.882,0,0,0,.977-.152l2.357-2.155h4.395a1.808,1.808,0,0,1-.269-1.027Z" transform="translate(-2.5 -4.4)" fill="#00448f" stroke="rgba(0,0,0,0)" stroke-miterlimit="10" stroke-width="1"/>
    <path id="Path_9916" data-name="Path 9916" d="M62.492,40.478l-1.263-1.263a.844.844,0,0,0-1.179,0l-4.041,4.041a.754.754,0,0,0-.236.539l-.084,1.347a.823.823,0,0,0,.236.64.841.841,0,0,0,.589.236h.051l1.347-.084a.923.923,0,0,0,.539-.236l4.041-4.041A.844.844,0,0,0,62.492,40.478Zm-4.765,4.361-.926.051.051-.926.37-.37.859.859Zm1.162-1.162-.859-.859,2.593-2.61.859.859Z" transform="translate(-46.731 -33.153)" fill="#00448f" stroke="rgba(0,0,0,0)" stroke-miterlimit="10" stroke-width="1"/>
  </g>
</svg>
