<svg xmlns="http://www.w3.org/2000/svg" width="19.842" height="17.64" viewBox="0 0 19.842 17.64">
  <g id="noun_Refund_2120080" transform="translate(-0.006 0)">
    <g id="Group_6792" data-name="Group 6792" transform="translate(0.006 0)">
      <path id="Path_9934" data-name="Path 9934" d="M11.028,17.64a.589.589,0,0,1,0-1.178A7.642,7.642,0,1,0,3.4,8.3H5.153a.589.589,0,0,1,.412,1.008L3.286,11.563a.588.588,0,0,1-.824,0L.213,9.342A.59.59,0,0,1,.595,8.3H2.223a8.82,8.82,0,1,1,8.8,9.336ZM10.484,4.434a.589.589,0,0,1,1.178,0v.922a5.781,5.781,0,0,1,.9.207A.587.587,0,0,1,12.2,6.681a4.8,4.8,0,0,0-.538-.138v1.7c2.709.673,2.119,3.453,0,3.738v.9a.589.589,0,0,1-1.178,0v-.943a6.642,6.642,0,0,1-1.427-.453.587.587,0,0,1,.469-1.077,5.852,5.852,0,0,0,.958.329V9.177c-2.824-.694-2.082-3.608,0-3.856V4.434Zm1.178,5.042v1.315C12.462,10.6,12.489,9.786,11.662,9.476Zm-1.178-1.53V6.519C9.722,6.722,9.625,7.627,10.484,7.947Z" transform="translate(-0.006 0)" fill="#00448f"/>
    </g>
  </g>
</svg>
