<svg xmlns="http://www.w3.org/2000/svg" width="13.404" height="17.574" viewBox="0 0 13.404 17.574">
  <g id="Group_6762" data-name="Group 6762" transform="translate(0.25 0.25)">
    <g id="Group_6761" data-name="Group 6761">
      <path id="Path_9910" data-name="Path 9910" d="M15.987,8.826A1.745,1.745,0,0,1,17.73,7.083h5.1L21.756,8.161a.94.94,0,0,0,1.33,1.33l2.7-2.7a.955.955,0,0,0,0-1.33l-2.7-2.7a.94.94,0,1,0-1.33,1.33l1.078,1.078h-5.1a3.632,3.632,0,0,0-3.63,3.63V14l1.887-1.887Z" transform="translate(-14.1 -2.5)" fill="#00448f" stroke="#fff" stroke-width="0.5"/>
      <path id="Path_9911" data-name="Path 9911" d="M29.465,35.287v3.307a1.745,1.745,0,0,1-1.743,1.743h-5.1L23.7,39.259a.94.94,0,0,0-1.33-1.33l-2.7,2.7a.955.955,0,0,0,0,1.33l2.7,2.7a.94.94,0,0,0,1.33-1.33l-1.078-1.078h5.1a3.632,3.632,0,0,0,3.63-3.63V33.4Z" transform="translate(-18.447 -27.846)" fill="#00448f" stroke="#fff" stroke-width="0.5"/>
    </g>
  </g>
</svg>
