<svg xmlns="http://www.w3.org/2000/svg" width="10.428" height="10.408" viewBox="0 0 10.428 10.408">
  <g id="Group_7471" data-name="Group 7471" transform="translate(-41.2 -41.5)">
    <path id="Path_12117" data-name="Path 12117" d="M51.628,257.6V259.9a.525.525,0,0,1-.016.128h0a.5.5,0,0,1-.483.4H41.7a.494.494,0,0,1-.489-.44.389.389,0,0,1-.007-.089v-2.308a.492.492,0,0,1,.985,0v1.849h8.461v-1.849a.492.492,0,0,1,.841-.348A.52.52,0,0,1,51.628,257.6Z" transform="translate(0 -208.521)" fill="#00448f"/>
    <path id="Path_12118" data-name="Path 12118" d="M114.344,46.763l-2.42,2.42c0,.007-.01.01-.013.013a.57.57,0,0,1-.318.161c-.01,0-.02,0-.03,0a.357.357,0,0,1-.059,0h0l-.056,0c-.01,0-.02,0-.03,0a.56.56,0,0,1-.318-.161l-.013-.013-2.42-2.42a.576.576,0,1,1,.814-.814l1.454,1.454V42.075a.577.577,0,0,1,.575-.575.587.587,0,0,1,.407.167.568.568,0,0,1,.167.407V47.4l1.454-1.454a.579.579,0,0,1,.814,0A.588.588,0,0,1,114.344,46.763Z" transform="translate(-65.09)" fill="#00448f"/>
  </g>
</svg>
