<svg xmlns="http://www.w3.org/2000/svg" width="13.64" height="14.873" viewBox="0 0 13.64 14.873">
  <path id="Path_28" data-name="Path 28" d="M21.338,7a.239.239,0,0,0-.181.231V9.641a.359.359,0,0,0,.065.2l4.063,5.5v6a.244.244,0,0,0,.391.166l4.591-2.784a.235.235,0,0,0,.08-.166V15.382l4.085-5.539a.285.285,0,0,0,.065-.181V7.233A.241.241,0,0,0,34.265,7H21.388A.232.232,0,0,0,21.338,7Zm.282.463H34.034V9.445H21.62ZM21.8,9.908H33.846L29.913,15.2a.232.232,0,0,0-.029.116v3.14l-4.136,2.365V15.28a.233.233,0,0,0-.036-.116Z" transform="translate(-21.007 -6.85)" fill="#717171" stroke="#717171" stroke-width="0.3"/>
</svg>
