<svg xmlns="http://www.w3.org/2000/svg" width="12.31" height="8.826" viewBox="0 0 12.31 8.826">
  <g id="Group_7472" data-name="Group 7472" transform="translate(-2 -5.989)">
    <path id="Path_12099" data-name="Path 12099" d="M8.155,7.757A2.645,2.645,0,1,0,10.793,10.4,2.641,2.641,0,0,0,8.155,7.757Zm0,4.408A1.763,1.763,0,1,1,9.914,10.4,1.761,1.761,0,0,1,8.155,12.165Zm6.129-1.918a6.541,6.541,0,0,0-12.258,0,.464.464,0,0,0,0,.309,6.541,6.541,0,0,0,12.258,0A.467.467,0,0,0,14.284,10.248ZM8.155,13.929A5.715,5.715,0,0,1,2.91,10.4a5.666,5.666,0,0,1,10.49,0A5.715,5.715,0,0,1,8.155,13.929Z" transform="translate(0 0)" fill="#00448f"/>
  </g>
</svg>
