<svg xmlns="http://www.w3.org/2000/svg" width="17.49" height="17.496" viewBox="0 0 17.49 17.496">
  <g id="Group_6760" data-name="Group 6760" transform="translate(0.5 0.507)">
    <g id="Group_6755" data-name="Group 6755" transform="translate(0 0)">
      <g id="Group_6754" data-name="Group 6754">
        <path id="Path_9907" data-name="Path 9907" d="M54.313,44.57c.072.086.142.171.21.259l-.11-.142a7.593,7.593,0,0,1,.983,1.685c-.023-.056-.047-.112-.07-.168a7.571,7.571,0,0,1,.523,1.926c-.009-.061-.017-.124-.024-.185a7.735,7.735,0,0,1,0,2.021c.009-.061.017-.124.024-.185a7.589,7.589,0,0,1-.52,1.907c.023-.056.047-.112.07-.168a7.618,7.618,0,0,1-.987,1.686l.11-.142a7.67,7.67,0,0,1-1.358,1.358l.142-.11a7.687,7.687,0,0,1-1.686.987l.168-.07a7.589,7.589,0,0,1-1.907.52c.061-.009.124-.017.185-.024a7.657,7.657,0,0,1-2.04,0c.061.009.124.017.185.024a7.589,7.589,0,0,1-1.907-.52l.168.07a7.618,7.618,0,0,1-1.686-.987l.142.11a7.67,7.67,0,0,1-1.358-1.358l.11.142a7.686,7.686,0,0,1-.987-1.686c.023.056.047.112.07.168a7.589,7.589,0,0,1-.52-1.907c.009.061.017.124.024.185a7.658,7.658,0,0,1,0-2.04c-.009.061-.017.124-.024.185a7.589,7.589,0,0,1,.52-1.907c-.023.056-.047.112-.07.168a7.618,7.618,0,0,1,.987-1.686l-.11.142a7.67,7.67,0,0,1,1.358-1.358l-.142.11a7.687,7.687,0,0,1,1.686-.987l-.168.07a7.589,7.589,0,0,1,1.907-.52c-.061.009-.124.017-.185.024a7.643,7.643,0,0,1,1.02-.068l-.7-.7v5.477c0,.252,0,.506,0,.757v.01a.7.7,0,1,0,1.4,0V42.168c0-.252,0-.506,0-.757V41.4a.71.71,0,0,0-.7-.7,8.241,8.241,0,1,0,7.02,3.92A9.078,9.078,0,0,0,55.3,43.58a.708.708,0,0,0-.5-.2.719.719,0,0,0-.5.2.7.7,0,0,0-.2.5.775.775,0,0,0,.2.5Z" transform="translate(-40.803 -40.7)" fill="#00448f" stroke="rgba(0,0,0,0)" stroke-miterlimit="10" stroke-width="1"/>
      </g>
    </g>
    <g id="Group_6757" data-name="Group 6757" transform="translate(2.989 2.991)">
      <g id="Group_6756" data-name="Group 6756" transform="translate(0 0)">
        <path id="Path_9908" data-name="Path 9908" d="M219.876,214.507c.042.049.082.1.122.15l-.11-.142a4.7,4.7,0,0,1,.6,1.029c-.023-.056-.047-.112-.07-.168a4.587,4.587,0,0,1,.313,1.149c-.009-.061-.018-.124-.024-.185a4.755,4.755,0,0,1,0,1.221c.009-.061.017-.124.024-.185a4.659,4.659,0,0,1-.313,1.156c.023-.056.047-.112.07-.168a4.586,4.586,0,0,1-.59,1.013l.11-.142a4.634,4.634,0,0,1-.838.838l.142-.11a4.685,4.685,0,0,1-1.013.59l.168-.07a4.659,4.659,0,0,1-1.156.313c.061-.009.124-.018.185-.024a4.688,4.688,0,0,1-1.212,0c.061.009.124.018.185.024a4.659,4.659,0,0,1-1.156-.313l.168.07a4.586,4.586,0,0,1-1.013-.59l.142.11a4.634,4.634,0,0,1-.838-.838l.11.142a4.686,4.686,0,0,1-.59-1.013c.023.056.047.112.07.168a4.66,4.66,0,0,1-.313-1.156c.009.061.018.124.024.185a4.688,4.688,0,0,1,0-1.212c-.009.061-.017.124-.024.185a4.66,4.66,0,0,1,.313-1.156c-.023.056-.047.112-.07.168a4.587,4.587,0,0,1,.59-1.013l-.11.142a4.634,4.634,0,0,1,.838-.838l-.142.11a4.686,4.686,0,0,1,1.013-.59l-.168.07a4.659,4.659,0,0,1,1.156-.313c-.061.009-.124.018-.185.025a4.7,4.7,0,0,1,.607-.04l-.7-.7v3.259a.7.7,0,0,0,1.4,0V212.4a.709.709,0,0,0-.7-.7,5.254,5.254,0,1,0,5.245,5.546,5.239,5.239,0,0,0-.771-3.053,5.934,5.934,0,0,0-.5-.677.708.708,0,0,0-.5-.2.719.719,0,0,0-.5.2.7.7,0,0,0-.2.5.783.783,0,0,0,.2.5Z" transform="translate(-211.637 -211.7)" fill="#00448f" stroke="rgba(0,0,0,0)" stroke-miterlimit="10" stroke-width="1"/>
      </g>
    </g>
    <g id="Group_6759" data-name="Group 6759" transform="translate(6.249 6.256)">
      <g id="Group_6758" data-name="Group 6758" transform="translate(0 0)">
        <path id="Path_9909" data-name="Path 9909" d="M400.594,400.269a1.356,1.356,0,0,1-.011.17c.009-.061.018-.124.025-.185a1.337,1.337,0,0,1-.093.339c.023-.056.047-.112.07-.168a1.43,1.43,0,0,1-.163.278l.11-.142a1.371,1.371,0,0,1-.241.241l.142-.11a1.378,1.378,0,0,1-.278.163l.168-.07a1.358,1.358,0,0,1-.339.093c.061-.009.124-.018.185-.024a1.378,1.378,0,0,1-.339,0c.061.009.124.017.185.024a1.338,1.338,0,0,1-.339-.093l.168.07a1.429,1.429,0,0,1-.278-.163l.142.11a1.371,1.371,0,0,1-.241-.241l.11.142a1.382,1.382,0,0,1-.163-.278c.023.056.047.112.07.168a1.356,1.356,0,0,1-.093-.339c.009.061.017.124.025.185a1.379,1.379,0,0,1,0-.339c-.009.061-.017.124-.025.185a1.336,1.336,0,0,1,.093-.339c-.023.056-.047.112-.07.168a1.431,1.431,0,0,1,.163-.278l-.11.142a1.371,1.371,0,0,1,.241-.241l-.142.11a1.378,1.378,0,0,1,.278-.163l-.168.07a1.358,1.358,0,0,1,.339-.093c-.061.009-.124.017-.185.024a1.365,1.365,0,0,1,.338,0c-.061-.009-.124-.018-.185-.024a1.357,1.357,0,0,1,.339.093l-.168-.07a1.443,1.443,0,0,1,.3.175l-.142-.11a1.365,1.365,0,0,1,.224.226l-.11-.142a1.405,1.405,0,0,1,.17.289c-.023-.056-.047-.112-.07-.168a1.434,1.434,0,0,1,.091.329c-.009-.061-.017-.124-.025-.185,0,.056.007.114.007.173a.73.73,0,0,0,.2.5.7.7,0,0,0,1.195-.5,2.063,2.063,0,0,0-.511-1.331,1.907,1.907,0,0,0-1.05-.616,2.186,2.186,0,0,0-.791-.012,1.99,1.99,0,0,0-1.344.913,1.991,1.991,0,0,0,.052,2.169,2.2,2.2,0,0,0,.436.457,2.165,2.165,0,0,0,.558.306,1.966,1.966,0,0,0,1.149.049,2.018,2.018,0,0,0,1.5-1.933.7.7,0,0,0-1.4,0Z" transform="translate(-398.003 -398.279)" fill="#00448f" stroke="rgba(0,0,0,0)" stroke-miterlimit="10" stroke-width="1"/>
      </g>
    </g>
  </g>
</svg>
